<svg xmlns="http://www.w3.org/2000/svg" width="147" height="182" viewBox="0 0 147 182" fill="none">
  <path fill-rule="evenodd" clip-rule="evenodd" d="M30.7361 0H138.307V150.599H30.7361V0ZM61.468 43.0281C61.468 48.1204 57.3399 52.2485 52.2476 52.2485C47.1553 52.2485 43.0272 48.1204 43.0272 43.0281C43.0272 37.9358 47.1553 33.8077 52.2476 33.8077C57.3399 33.8077 61.468 37.9358 61.468 43.0281ZM95.2777 52.2485C100.37 52.2485 104.498 48.1204 104.498 43.0281C104.498 37.9358 100.37 33.8077 95.2777 33.8077C90.1854 33.8077 86.0573 37.9358 86.0573 43.0281C86.0573 48.1204 90.1854 52.2485 95.2777 52.2485ZM104.498 86.0582C104.498 91.1505 100.37 95.2786 95.2777 95.2786C90.1854 95.2786 86.0573 91.1505 86.0573 86.0582C86.0573 80.9659 90.1854 76.8378 95.2777 76.8378C100.37 76.8378 104.498 80.9659 104.498 86.0582ZM95.2777 138.305C100.37 138.305 104.498 134.177 104.498 129.084C104.498 123.992 100.37 119.864 95.2777 119.864C90.1854 119.864 86.0573 123.992 86.0573 129.084C86.0573 134.177 90.1854 138.305 95.2777 138.305Z" fill="#40263E"/>
  <circle cx="95.2754" cy="172.114" r="9.22037" fill="#40263E"/>
  <circle cx="9.22037" cy="43.028" r="9.22037" fill="#40263E"/>
</svg>
