<svg width="1337" height="182" viewBox="0 0 1337 182" fill="none" xmlns="http://www.w3.org/2000/svg">
<path fill-rule="evenodd" clip-rule="evenodd" d="M30.7361 0H138.307V150.599H30.7361V0ZM61.468 43.0281C61.468 48.1204 57.3399 52.2485 52.2476 52.2485C47.1553 52.2485 43.0272 48.1204 43.0272 43.0281C43.0272 37.9358 47.1553 33.8077 52.2476 33.8077C57.3399 33.8077 61.468 37.9358 61.468 43.0281ZM95.2777 52.2485C100.37 52.2485 104.498 48.1204 104.498 43.0281C104.498 37.9358 100.37 33.8077 95.2777 33.8077C90.1854 33.8077 86.0573 37.9358 86.0573 43.0281C86.0573 48.1204 90.1854 52.2485 95.2777 52.2485ZM104.498 86.0582C104.498 91.1505 100.37 95.2786 95.2777 95.2786C90.1854 95.2786 86.0573 91.1505 86.0573 86.0582C86.0573 80.9659 90.1854 76.8378 95.2777 76.8378C100.37 76.8378 104.498 80.9659 104.498 86.0582ZM95.2777 138.305C100.37 138.305 104.498 134.177 104.498 129.084C104.498 123.992 100.37 119.864 95.2777 119.864C90.1854 119.864 86.0573 123.992 86.0573 129.084C86.0573 134.177 90.1854 138.305 95.2777 138.305Z" fill="#40263E"/>
<circle cx="95.2754" cy="172.114" r="9.22037" fill="#40263E"/>
<circle cx="9.22037" cy="43.028" r="9.22037" fill="#40263E"/>
<path d="M198.67 120V30.4452H217.62L259.412 97.9358V30.4452H273.948V120H255.518L213.207 51.4711V120H198.67ZM311.766 121.557C298.527 121.557 289.053 113.77 289.053 100.791C289.053 86.2547 300.344 83.2696 315.27 81.0631C328.249 78.9865 331.883 77.9482 331.883 73.4056C331.883 68.6033 328.119 63.8011 319.423 63.8011C311.506 63.8011 306.574 67.8246 306.185 74.5737H291.259C291.908 59.2585 303.459 52.2499 319.294 52.2499C335.517 52.2499 346.29 59.7777 346.29 75.8716V101.44C346.29 108.579 346.549 114.289 348.107 120H333.83L333.181 111.953C328.119 118.572 320.332 121.557 311.766 121.557ZM315.53 110.136C324.096 110.136 331.883 104.944 331.883 95.7294V86.7739C329.287 88.8505 324.485 90.1484 316.438 91.8357C308.91 93.3931 303.459 94.9506 303.459 101.051C303.459 106.891 308.781 110.136 315.53 110.136ZM387.432 121.557C369.391 121.557 358.878 113.381 358.489 98.3251H372.896C373.285 105.593 378.606 110.136 387.692 110.136C395.219 110.136 400.022 106.891 400.022 101.829C400.022 96.6379 395.479 95.0804 385.355 92.7442C371.208 89.4995 359.917 86.1249 359.917 72.497C359.917 60.2968 370.04 52.2499 386.783 52.2499C403.526 52.2499 412.741 60.816 413.26 74.1843H398.983C398.594 67.1757 394.441 63.4118 386.524 63.4118C379.385 63.4118 374.713 66.3969 374.713 71.0693C374.713 76.2609 380.034 77.6886 389.639 79.895C402.747 82.8802 414.688 86.3845 414.688 99.8826C414.688 113.251 404.305 121.557 387.432 121.557ZM415.723 143.362V131.551H418.838C425.068 131.551 427.794 129.345 427.794 123.504V53.8073H442.33V125.711C442.33 137.002 437.138 143.362 423.64 143.362H415.723ZM427.664 45.371V29.5367H442.46V45.371H427.664ZM488.424 121.557C468.436 121.557 455.587 107.67 455.587 86.6441C455.587 65.6182 468.436 52.2499 488.424 52.2499C508.281 52.2499 521.131 65.6182 521.131 86.6441C521.131 107.67 508.281 121.557 488.424 121.557ZM488.424 109.227C499.585 109.227 506.075 101.051 506.075 86.6441C506.075 72.497 499.585 64.5799 488.424 64.5799C477.132 64.5799 470.772 72.497 470.772 86.6441C470.772 101.051 477.132 109.227 488.424 109.227ZM534.388 120V53.8073H548.665V62.8926C553.338 55.6244 562.163 52.2499 570.08 52.2499C583.319 52.2499 593.053 61.2053 593.053 76.5205V120H578.517V79.3759C578.517 70.1608 573.844 64.7097 565.019 64.7097C555.804 64.7097 548.925 70.8098 548.925 81.7121V120H534.388ZM628.888 121.557C615.65 121.557 606.175 113.77 606.175 100.791C606.175 86.2547 617.467 83.2696 632.393 81.0631C645.372 78.9865 649.006 77.9482 649.006 73.4056C649.006 68.6033 645.242 63.8011 636.546 63.8011C628.629 63.8011 623.697 67.8246 623.307 74.5737H608.382C609.031 59.2585 620.582 52.2499 636.416 52.2499C652.64 52.2499 663.412 59.7777 663.412 75.8716V101.44C663.412 108.579 663.672 114.289 665.229 120H650.953L650.304 111.953C645.242 118.572 637.454 121.557 628.888 121.557ZM632.652 110.136C641.218 110.136 649.006 104.944 649.006 95.7294V86.7739C646.41 88.8505 641.608 90.1484 633.561 91.8357C626.033 93.3931 620.582 94.9506 620.582 101.051C620.582 106.891 625.903 110.136 632.652 110.136ZM679.895 120V30.4452H694.431V120H679.895ZM746.495 121.557C737.799 121.557 730.661 118.053 726.118 111.953V120H711.581V30.4452H726.118V61.9841C730.79 55.6244 737.799 52.2499 746.625 52.2499C763.368 52.2499 775.308 64.8394 775.308 86.5143C775.308 108.579 763.108 121.557 746.495 121.557ZM743.12 109.357C753.633 109.357 760.123 101.44 760.123 86.5143C760.123 72.1077 753.763 64.4501 743.25 64.4501C732.607 64.4501 725.988 72.2374 725.988 86.9037C725.988 101.57 732.607 109.357 743.12 109.357ZM788.771 120V53.8073H803.307V120H788.771ZM788.641 45.371V29.5367H803.437V45.371H788.641ZM855.371 121.557C846.675 121.557 839.537 118.053 834.994 111.953V120H820.458V30.4452H834.994V61.9841C839.667 55.6244 846.675 52.2499 855.501 52.2499C872.244 52.2499 884.184 64.8394 884.184 86.5143C884.184 108.579 871.984 121.557 855.371 121.557ZM851.997 109.357C862.509 109.357 868.999 101.44 868.999 86.5143C868.999 72.1077 862.639 64.4501 852.126 64.4501C841.484 64.4501 834.864 72.2374 834.864 86.9037C834.864 101.57 841.484 109.357 851.997 109.357ZM897.647 120V30.4452H912.183V120H897.647ZM929.334 120V53.8073H943.87V120H929.334ZM929.204 45.371V29.5367H944V45.371H929.204ZM989.964 121.557C969.976 121.557 957.127 107.67 957.127 86.6441C957.127 65.6182 969.976 52.2499 989.964 52.2499C1009.82 52.2499 1022.67 65.6182 1022.67 86.6441C1022.67 107.67 1009.82 121.557 989.964 121.557ZM989.964 109.227C1001.13 109.227 1007.62 101.051 1007.62 86.6441C1007.62 72.497 1001.13 64.5799 989.964 64.5799C978.672 64.5799 972.312 72.497 972.312 86.6441C972.312 101.051 978.672 109.227 989.964 109.227ZM1057.63 120C1045.95 120 1040.63 113.77 1040.63 103.517V65.3586H1028.04V53.8073H1040.63V35.1176H1055.16V53.8073H1068.4V65.3586H1055.16V100.532C1055.16 105.853 1057.76 107.93 1063.47 107.93H1068.92V120H1057.63ZM1108.45 121.557C1088.86 121.557 1076.4 108.449 1076.4 86.7739C1076.4 65.3586 1090.15 52.2499 1109.23 52.2499C1128.57 52.2499 1139.47 65.2288 1139.47 86.2547V90.1484H1091.45C1092.49 102.608 1098.98 109.487 1109.1 109.487C1116.76 109.487 1122.21 105.204 1123.64 98.7145H1138.7C1136.49 112.732 1124.03 121.557 1108.45 121.557ZM1091.97 79.7652H1124.55C1124.16 70.2906 1118.45 64.1905 1109.23 64.1905C1100.15 64.1905 1093.79 69.7714 1091.97 79.7652ZM1152.79 120V30.4452H1167.33V81.4525L1193.02 53.8073H1211.58L1186.41 79.895L1212.49 120H1195.1L1176.41 90.1484L1167.33 99.623V120H1152.79ZM1246.1 121.557C1226.5 121.557 1214.04 108.449 1214.04 86.7739C1214.04 65.3586 1227.8 52.2499 1246.88 52.2499C1266.22 52.2499 1277.12 65.2288 1277.12 86.2547V90.1484H1229.1C1230.14 102.608 1236.63 109.487 1246.75 109.487C1254.41 109.487 1259.86 105.204 1261.29 98.7145H1276.34C1274.14 112.732 1261.68 121.557 1246.1 121.557ZM1229.62 79.7652H1262.2C1261.81 70.2906 1256.1 64.1905 1246.88 64.1905C1237.8 64.1905 1231.44 69.7714 1229.62 79.7652ZM1312.26 120C1300.58 120 1295.26 113.77 1295.26 103.517V65.3586H1282.67V53.8073H1295.26V35.1176H1309.8V53.8073H1323.04V65.3586H1309.8V100.532C1309.8 105.853 1312.39 107.93 1318.1 107.93H1323.56V120H1312.26Z" fill="#40263E"/>
</svg>
